<?xml version="1.0" encoding="utf-8"?>
<svg xmlns="http://www.w3.org/2000/svg" viewBox="256.452 196.402 481.038 178.44" width="481.038px" height="178.44px"><path d="M 434.892 285.622 C 434.892 334.897 394.947 374.842 345.672 374.842 C 344.088 374.842 342.513 374.801 340.949 374.719 C 339.776 369.371 338.817 364.178 338.072 359.14 C 336.911 351.299 336.174 343.835 335.861 336.746 L 341.036 336.746 C 347.434 336.746 353.863 336.213 360.324 335.147 C 366.785 334.08 372.996 332.481 378.955 330.348 C 384.914 328.215 390.465 325.534 395.609 322.303 C 400.752 319.072 405.222 315.309 409.017 311.012 C 412.812 306.715 415.791 301.87 417.956 296.475 C 420.12 291.08 421.202 285.121 421.202 278.597 C 421.202 270.631 419.634 263.715 416.497 257.85 C 413.361 251.985 409.158 247.124 403.889 243.266 C 398.62 239.408 392.504 236.523 385.541 234.61 C 378.578 232.697 371.271 231.74 363.618 231.74 C 357.094 231.74 350.758 232.32 344.611 233.48 C 338.464 234.641 332.677 236.084 327.251 237.809 C 321.825 239.534 316.838 241.415 312.291 243.454 C 307.743 245.493 303.807 247.406 300.482 249.194 C 297.157 250.981 294.507 252.502 292.531 253.757 C 290.555 255.012 289.442 255.702 289.191 255.827 L 291.355 258.932 C 295.432 256.297 300.184 253.6 305.61 250.84 C 311.036 248.08 316.713 245.587 322.641 243.36 C 328.568 241.133 334.574 239.314 340.659 237.903 C 346.744 236.492 352.515 235.786 357.972 235.786 C 360.669 235.786 363.806 235.958 367.381 236.303 C 370.957 236.648 374.642 237.307 378.437 238.279 C 382.232 239.252 385.98 240.616 389.681 242.372 C 393.382 244.129 396.675 246.45 399.561 249.335 C 402.446 252.22 404.783 255.717 406.571 259.826 C 408.358 263.935 409.252 268.843 409.252 274.551 C 409.252 281.577 408.295 287.913 406.382 293.558 C 404.469 299.203 401.851 304.19 398.526 308.519 C 395.201 312.847 391.328 316.564 386.905 319.669 C 382.483 322.774 377.763 325.314 372.745 327.29 C 367.726 329.266 362.567 330.724 357.266 331.665 C 351.966 332.606 346.807 333.077 341.788 333.077 L 335.672 333.077 C 335.672 331.07 335.672 322.978 335.672 321.033 C 335.672 319.088 335.735 317.206 335.861 315.387 C 336.99 315.199 338.15 315.027 339.342 314.87 C 340.534 314.713 341.789 314.572 343.106 314.446 L 342.729 310.777 C 341.6 310.902 340.503 311.043 339.436 311.2 C 338.369 311.357 337.303 311.529 336.237 311.718 C 336.739 304.128 337.57 297.259 338.73 291.112 C 339.891 284.965 341.114 279.601 342.4 275.022 C 343.686 270.443 344.925 266.679 346.117 263.731 C 347.308 260.783 348.186 258.682 348.751 257.427 L 345.458 255.827 C 345.458 255.89 345.019 256.533 344.141 257.756 C 343.262 258.979 342.164 260.751 340.847 263.072 C 339.53 265.393 338.087 268.232 336.519 271.588 C 334.951 274.944 333.43 278.802 331.956 283.161 C 330.482 287.52 329.149 292.35 327.957 297.651 C 326.765 302.952 325.918 308.676 325.416 314.823 C 321.841 316.266 319.018 318.022 316.948 320.092 C 314.878 322.162 313.843 324.263 313.843 326.396 C 313.843 327.086 313.984 327.87 314.266 328.748 C 314.549 329.627 315.113 330.489 315.96 331.336 C 316.807 332.183 317.999 332.982 319.536 333.735 C 321.073 334.488 323.096 335.115 325.605 335.617 C 326.106 339.882 326.843 344.43 327.816 349.26 C 328.788 354.09 329.917 358.763 331.203 363.28 C 332.318 367.197 333.504 370.831 334.761 374.182 C 290.633 368.801 256.452 331.203 256.452 285.622 C 256.452 236.347 296.397 196.402 345.672 196.402 C 394.947 196.402 434.892 236.347 434.892 285.622 Z M 325.228 319.057 C 325.103 320.249 325.04 321.456 325.04 322.679 C 325.04 323.902 325.04 325.141 325.04 326.396 C 325.04 327.274 325.04 328.137 325.04 328.984 C 325.04 329.831 325.103 330.693 325.228 331.571 C 322.405 330.881 320.445 330.081 319.347 329.172 C 318.25 328.262 317.701 327.337 317.701 326.396 C 317.701 324.075 320.21 321.629 325.228 319.057 Z M 455.323 374.195 C 452.124 374.195 449.05 373.63 446.102 372.501 C 443.154 371.372 440.567 369.662 438.34 367.373 C 436.113 365.084 434.34 362.214 433.023 358.764 C 431.706 355.314 431.047 351.268 431.047 346.626 C 431.047 340.981 431.863 335.947 433.494 331.524 C 435.125 327.102 437.21 323.37 439.751 320.327 C 442.292 317.285 445.13 314.964 448.266 313.364 C 451.403 311.765 454.476 310.965 457.487 310.965 C 461.376 310.965 464.466 312.251 466.755 314.823 C 469.045 317.395 470.19 320.72 470.19 324.797 C 470.19 328.31 469.531 331.493 468.214 334.347 C 466.897 337.201 465.156 339.647 462.992 341.686 C 460.827 343.725 458.349 345.309 455.558 346.438 C 452.767 347.567 449.866 348.131 446.855 348.131 C 445.412 348.131 444.048 348.053 442.762 347.896 C 441.476 347.739 440.331 347.567 439.328 347.379 C 439.704 351.268 440.457 354.623 441.586 357.446 C 442.715 360.269 444.126 362.59 445.82 364.409 C 447.513 366.228 449.411 367.577 451.512 368.455 C 453.613 369.333 455.793 369.772 458.052 369.772 C 460.875 369.772 463.478 369.082 465.861 367.702 C 468.245 366.322 470.441 364.519 472.448 362.292 C 474.455 360.065 476.29 357.509 477.952 354.624 C 479.615 351.738 481.105 348.805 482.422 345.826 C 482.953 344.626 483.46 343.436 483.945 342.257 C 485.336 338.676 486.564 335.302 487.63 332.136 C 488.727 328.874 489.715 325.612 490.593 322.35 C 489.59 320.907 488.727 319.104 488.006 316.94 C 487.285 314.776 486.924 312.188 486.924 309.177 C 486.924 306.48 487.347 304.237 488.194 302.45 C 489.041 300.662 490.154 299.768 491.534 299.768 C 492.287 299.768 492.992 300.113 493.651 300.803 C 494.31 301.493 494.859 302.403 495.298 303.532 C 495.737 304.661 496.082 305.962 496.333 307.437 C 496.584 308.911 496.709 310.463 496.709 312.094 C 496.709 312.847 496.662 313.662 496.568 314.541 C 496.474 315.419 496.364 316.313 496.239 317.222 C 496.114 318.131 495.957 319.01 495.768 319.857 C 495.58 320.704 495.392 321.409 495.204 321.974 C 495.58 322.287 496.192 322.554 497.039 322.774 C 497.886 322.993 498.999 323.103 500.379 323.103 C 502.762 323.103 504.864 322.758 506.683 322.068 C 508.502 321.378 509.945 320.5 511.011 319.433 C 511.952 317.928 512.689 316.767 513.222 315.952 C 513.755 315.137 514.179 314.525 514.493 314.117 C 514.806 313.71 515.041 313.459 515.198 313.364 C 515.355 313.27 515.559 313.223 515.81 313.223 C 516.5 313.223 517.065 313.411 517.504 313.788 C 517.943 314.164 518.162 314.697 518.162 315.387 C 518.162 315.576 518.068 315.827 517.88 316.14 C 517.692 316.454 517.441 316.862 517.127 317.363 C 514.492 321.19 512.422 325.393 510.917 329.972 C 509.412 334.551 508.659 339.631 508.659 345.214 C 508.659 351.675 509.71 356.349 511.811 359.234 C 513.912 362.119 516.908 363.562 520.797 363.562 C 522.93 363.562 524.968 362.919 526.913 361.633 C 528.858 360.348 530.771 358.341 532.652 355.612 C 534.534 352.883 536.432 349.37 538.345 345.073 C 540.258 340.776 542.313 335.586 544.508 329.501 L 548.178 330.442 C 545.481 338.409 542.94 344.948 540.556 350.06 C 538.173 355.173 535.82 359.219 533.499 362.198 C 531.178 365.177 528.795 367.247 526.348 368.408 C 523.902 369.569 521.236 370.149 518.35 370.149 C 516.531 370.149 514.65 369.741 512.705 368.926 C 510.76 368.11 508.988 366.824 507.389 365.068 C 505.789 363.311 504.487 361.037 503.484 358.246 C 502.481 355.455 501.979 352.083 501.979 348.131 C 501.979 346.186 502.151 344.163 502.496 342.062 C 502.841 339.961 503.296 337.922 503.86 335.946 C 504.425 333.971 505.052 332.058 505.742 330.207 C 506.432 328.356 507.153 326.678 507.906 325.173 C 505.648 326.239 503.202 326.772 500.567 326.772 C 497.995 326.772 495.831 326.333 494.075 325.455 C 493.448 327.65 492.82 329.532 492.193 331.101 C 491.979 331.637 491.757 332.159 491.528 332.669 C 490.923 334.242 490.256 336.008 489.526 337.969 C 488.428 340.918 487.158 344.007 485.715 347.237 C 484.272 350.468 482.579 353.698 480.634 356.929 C 478.689 360.16 476.494 363.045 474.047 365.585 C 471.601 368.126 468.825 370.196 465.72 371.795 C 462.615 373.395 459.15 374.195 455.323 374.195 Z M 457.675 314.635 C 455.354 314.635 453.081 315.372 450.854 316.846 C 448.627 318.32 446.636 320.343 444.879 322.915 C 443.122 325.486 441.695 328.529 440.598 332.042 C 439.5 335.555 438.951 339.318 438.951 343.333 C 439.766 343.646 440.911 343.913 442.386 344.132 C 443.86 344.352 445.663 344.462 447.796 344.462 C 450.054 344.462 452.296 343.976 454.523 343.003 C 456.75 342.031 458.758 340.682 460.545 338.957 C 462.333 337.232 463.776 335.178 464.873 332.794 C 465.971 330.411 466.52 327.808 466.52 324.985 C 466.52 323.605 466.332 322.288 465.956 321.033 C 465.579 319.778 465.015 318.681 464.262 317.74 C 463.509 316.799 462.584 316.046 461.486 315.481 C 460.389 314.917 459.118 314.635 457.675 314.635 Z M 544.511 329.501 C 546.518 323.604 548.682 319.198 551.003 316.281 C 553.324 313.364 556.052 311.906 559.189 311.906 C 560.569 311.906 561.871 312.22 563.094 312.847 C 564.317 313.474 565.399 314.494 566.34 315.905 C 567.281 317.316 568.018 319.151 568.551 321.409 C 569.084 323.668 569.351 326.428 569.351 329.689 C 572.174 322.476 575.028 317.332 577.913 314.258 C 580.799 311.185 583.936 309.648 587.323 309.648 C 588.577 309.648 589.847 309.899 591.133 310.4 C 592.419 310.902 593.58 311.796 594.615 313.082 C 595.65 314.368 596.512 316.109 597.202 318.304 C 597.892 320.499 598.268 323.259 598.331 326.584 C 600.025 323.259 602.142 320.562 604.682 318.492 C 607.223 316.422 610.03 315.387 613.104 315.387 C 614.609 315.387 616.115 315.654 617.62 316.187 C 619.125 316.72 620.458 317.614 621.619 318.869 C 622.78 320.124 623.736 321.77 624.489 323.809 C 625.242 325.848 625.618 328.372 625.618 331.383 C 625.618 332.261 625.555 333.406 625.43 334.817 C 625.305 336.228 625.148 337.781 624.959 339.475 C 624.771 341.168 624.583 342.893 624.395 344.65 C 624.206 346.406 624.018 348.053 623.83 349.59 C 623.642 351.127 623.485 352.475 623.36 353.636 C 623.235 354.796 623.172 355.596 623.172 356.035 C 623.172 359.736 623.611 362.433 624.489 364.127 C 625.367 365.82 626.966 366.667 629.287 366.667 C 631.044 366.667 632.832 365.616 634.651 363.515 C 636.47 361.414 638.32 358.638 640.202 355.188 C 642.084 351.738 643.997 347.786 645.942 343.333 C 647.736 339.225 649.556 334.984 651.403 330.61 C 651.445 330.445 651.488 330.279 651.531 330.113 C 653.256 323.495 656.251 316.015 660.516 307.672 L 663.998 308.613 C 663.621 310.244 663.01 312.47 662.163 315.293 C 661.316 318.116 660.469 321.268 659.622 324.749 C 658.775 328.231 658.038 331.869 657.411 335.664 C 656.784 339.459 656.47 343.113 656.47 346.626 C 656.47 349.574 656.69 351.973 657.129 353.824 C 657.568 355.675 658.149 357.117 658.87 358.152 C 659.591 359.187 660.438 359.893 661.41 360.269 C 662.383 360.646 663.433 360.834 664.562 360.834 C 666.381 360.834 668.106 360.269 669.737 359.14 C 671.368 358.011 672.921 356.521 674.395 354.671 C 675.869 352.82 677.249 350.75 678.535 348.461 C 679.821 346.171 680.981 343.866 682.016 341.545 C 683.051 339.224 683.977 337.012 684.792 334.911 C 685.438 333.245 685.987 331.765 686.436 330.473 C 686.411 329.213 686.399 327.917 686.399 326.584 C 686.399 319.684 686.775 313.254 687.528 307.295 C 682.133 306.605 677.601 305.523 673.931 304.049 C 670.262 302.575 667.423 301.148 665.416 299.768 L 666.922 296.287 C 667.863 296.852 668.992 297.51 670.309 298.263 C 671.626 299.016 673.163 299.737 674.919 300.427 C 676.676 301.117 678.636 301.76 680.8 302.356 C 682.964 302.951 685.332 303.375 687.904 303.626 C 688.782 297.981 689.911 292.884 691.291 288.336 C 692.671 283.788 694.192 279.899 695.855 276.669 C 697.517 273.438 699.242 270.96 701.03 269.235 C 702.817 267.51 704.558 266.648 706.252 266.648 C 708.197 266.648 709.577 267.401 710.392 268.906 C 711.207 270.411 711.615 272.419 711.615 274.928 C 711.615 276.747 711.427 278.755 711.051 280.95 C 710.674 283.145 710.172 285.482 709.545 287.96 C 708.918 290.437 708.165 293.009 707.287 295.675 C 706.409 298.341 705.499 300.991 704.558 303.626 C 710.831 303.061 716.617 302.026 721.918 300.521 C 727.219 299.016 731.814 297.479 735.703 295.91 L 737.49 299.392 C 732.347 301.337 727.015 303.077 721.495 304.614 C 715.975 306.151 709.796 307.107 702.959 307.484 C 701.39 311.561 699.775 315.435 698.113 319.104 C 696.451 322.773 694.93 325.957 693.55 328.654 C 693.613 332.167 693.816 335.977 694.161 340.086 C 694.506 344.195 695.196 348.037 696.231 351.613 C 697.266 355.188 698.74 358.168 700.653 360.551 C 702.566 362.935 705.091 364.127 708.228 364.127 C 710.863 364.127 713.278 363.014 715.473 360.787 C 717.668 358.56 719.691 355.737 721.542 352.318 C 723.393 348.899 725.102 345.151 726.67 341.074 C 728.238 336.997 729.712 333.139 731.092 329.501 L 734.762 330.442 C 733.883 332.7 732.942 335.24 731.939 338.063 C 730.936 340.886 729.807 343.756 728.552 346.673 C 727.297 349.59 725.917 352.412 724.412 355.141 C 722.906 357.87 721.244 360.316 719.425 362.48 C 717.606 364.644 715.598 366.369 713.403 367.655 C 711.208 368.941 708.824 369.584 706.252 369.584 C 703.492 369.584 700.904 368.957 698.489 367.702 C 696.074 366.448 693.973 364.206 692.185 360.975 C 690.398 357.744 688.986 353.353 687.951 347.802 C 687.512 345.449 687.167 342.823 686.914 339.923 C 686.3 341.47 685.64 343.045 684.933 344.65 C 683.772 347.285 682.471 349.856 681.028 352.365 C 679.585 354.874 677.955 357.117 676.136 359.093 C 674.317 361.069 672.294 362.669 670.067 363.892 C 667.84 365.115 665.377 365.726 662.68 365.726 C 658.729 365.726 655.451 364.127 652.848 360.928 C 650.25 357.736 648.948 352.919 648.943 346.478 C 647.264 350.431 645.464 354.118 643.542 357.54 C 641.253 361.617 638.791 364.989 636.156 367.655 C 633.521 370.321 630.605 371.654 627.406 371.654 C 623.705 371.654 620.882 370.556 618.937 368.361 C 616.993 366.166 616.021 362.496 616.021 357.352 C 616.021 355.094 616.178 352.695 616.491 350.154 C 616.804 347.614 617.165 345.074 617.573 342.533 C 617.981 339.992 618.342 337.515 618.655 335.1 C 618.969 332.685 619.126 330.473 619.126 328.466 C 619.126 327.337 619.032 326.208 618.843 325.079 C 618.655 323.95 618.326 322.93 617.855 322.021 C 617.385 321.111 616.758 320.39 615.973 319.857 C 615.189 319.324 614.17 319.057 612.916 319.057 C 611.347 319.057 609.842 319.81 608.399 321.315 C 606.956 322.82 605.576 324.828 604.259 327.337 C 602.942 329.846 601.718 332.716 600.589 335.946 C 599.46 339.177 598.457 342.501 597.579 345.92 C 596.7 349.339 595.916 352.726 595.226 356.082 C 594.536 359.438 594.003 362.496 593.627 365.256 L 586.946 364.127 C 586.946 364.127 587.103 363.359 587.417 361.822 C 587.73 360.285 588.091 358.309 588.499 355.894 C 588.906 353.479 589.361 350.75 589.863 347.708 C 590.365 344.665 590.82 341.607 591.227 338.534 C 591.635 335.46 591.98 332.512 592.262 329.689 C 592.545 326.866 592.686 324.483 592.686 322.538 C 592.686 319.903 592.184 317.739 591.18 316.046 C 590.177 314.353 588.703 313.506 586.758 313.506 C 584.939 313.506 583.198 314.541 581.536 316.611 C 579.873 318.681 578.321 321.394 576.878 324.749 C 575.435 328.105 574.087 331.9 572.832 336.135 C 571.578 340.369 570.418 344.634 569.351 348.931 C 568.284 353.228 567.343 357.352 566.528 361.304 C 565.713 365.256 564.991 368.643 564.364 371.466 L 558.06 369.961 C 558.938 365.632 559.722 361.241 560.412 356.788 C 561.039 352.961 561.604 348.758 562.106 344.179 C 562.608 339.6 562.859 335.147 562.859 330.818 C 562.859 328.058 562.796 325.753 562.67 323.903 C 562.545 322.052 562.294 320.562 561.918 319.433 C 561.541 318.304 561.024 317.505 560.365 317.034 C 559.706 316.563 558.875 316.328 557.872 316.328 C 556.304 316.328 554.704 317.457 553.073 319.716 C 551.442 321.974 549.811 325.549 548.18 330.442 Z M 677.923 278.033 C 677.923 280.228 677.076 281.922 675.383 283.114 C 673.689 284.306 671.556 284.902 668.985 284.902 C 667.668 284.902 666.429 284.698 665.268 284.29 C 664.107 283.882 663.104 283.349 662.257 282.69 C 661.41 282.031 660.752 281.247 660.281 280.338 C 659.81 279.429 659.575 278.472 659.575 277.468 C 659.575 275.335 660.406 273.61 662.069 272.293 C 663.731 270.976 665.66 270.317 667.855 270.317 C 669.424 270.317 670.835 270.552 672.09 271.023 C 673.344 271.494 674.41 272.105 675.289 272.858 C 676.167 273.611 676.826 274.442 677.265 275.351 C 677.704 276.261 677.923 277.155 677.923 278.033 Z M 672.842 278.033 C 672.842 277.406 672.576 276.825 672.043 276.292 C 671.51 275.759 670.71 275.492 669.643 275.492 C 667.698 275.492 666.726 276.214 666.726 277.657 C 666.726 278.347 667.024 278.927 667.62 279.397 C 668.216 279.868 669.016 280.103 670.02 280.103 C 670.961 280.103 671.666 279.899 672.137 279.491 C 672.607 279.084 672.842 278.598 672.842 278.033 Z M 706.816 271.635 C 706.252 271.635 705.405 272.199 704.276 273.328 C 703.147 274.457 701.955 276.292 700.701 278.833 C 699.446 281.373 698.239 284.697 697.078 288.806 C 695.917 292.915 694.992 297.98 694.302 304.002 L 700.701 304.002 C 701.83 300.866 702.817 297.824 703.664 294.875 C 704.511 291.927 705.249 289.183 705.876 286.642 C 706.503 284.102 706.973 281.813 707.287 279.774 C 707.6 277.735 707.757 276.057 707.757 274.74 C 707.757 272.67 707.443 271.635 706.816 271.635 Z M 693.55 321.127 C 694.616 318.932 695.619 316.72 696.56 314.493 C 697.501 312.266 698.411 309.993 699.289 307.672 L 693.926 307.672 C 693.801 309.679 693.707 311.796 693.644 314.023 C 693.581 316.25 693.55 318.555 693.55 320.939 Z" style="fill: rgb(2, 83, 154);" id="object-0"/></svg>